<?xml version="1.0" standalone="no"?>
<!DOCTYPE svg PUBLIC "-//W3C//DTD SVG 20010904//EN"
 "http://www.w3.org/TR/2001/REC-SVG-20010904/DTD/svg10.dtd">
<svg version="1.0" xmlns="http://www.w3.org/2000/svg"
 width="873.000000pt" height="822.000000pt" viewBox="0 0 873.000000 822.000000"
 preserveAspectRatio="xMidYMid meet">

<g transform="translate(0.000000,822.000000) scale(0.100000,-0.100000)"
fill="#000000" stroke="none">
<path d="M1003 7678 c-58 -15 -73 -47 -73 -160 0 -79 -3 -99 -13 -95 -7 3 -84
19 -170 37 -126 26 -160 30 -172 20 -13 -11 -15 -155 -15 -1106 0 -980 2
-1094 16 -1108 8 -9 16 -16 18 -16 2 0 280 -59 314 -67 21 -5 22 -10 22 -105
0 -99 0 -100 -22 -95 -99 23 -318 59 -332 54 -15 -6 -16 -85 -16 -950 0 -828
2 -946 15 -957 15 -12 42 -19 235 -60 137 -29 130 -26 130 -71 0 -66 20 -125
57 -169 43 -50 89 -74 168 -88 33 -6 193 -38 355 -72 162 -33 327 -67 365 -75
39 -8 203 -41 365 -75 162 -34 327 -67 365 -75 39 -8 158 -32 265 -55 371 -77
370 -77 370 -57 0 9 -60 25 -182 50 -101 21 -259 54 -353 73 -93 19 -255 52
-360 74 -178 37 -271 56 -707 145 -519 106 -552 114 -592 143 -50 35 -79 91
-84 165 -4 54 -3 59 14 54 11 -4 64 -15 119 -26 55 -11 222 -45 370 -76 149
-31 302 -62 340 -70 39 -8 203 -41 365 -75 567 -117 524 -111 540 -80 16 29 9
382 -7 388 -10 3 -13 -39 -13 -187 0 -185 -1 -191 -20 -191 -20 0 -181 32
-725 145 -148 31 -301 62 -340 70 -38 7 -200 41 -360 74 -159 33 -371 76 -470
96 -99 20 -183 40 -186 43 -10 10 -21 1859 -12 1865 4 3 136 -21 293 -54 157
-32 350 -72 430 -88 80 -17 278 -58 440 -91 162 -33 372 -76 465 -96 94 -19
238 -48 320 -65 83 -17 152 -33 155 -36 3 -2 7 -184 9 -404 2 -224 7 -399 12
-399 5 0 9 177 9 410 l0 410 -22 10 c-13 5 -59 16 -103 25 -44 9 -255 52 -470
96 -214 44 -410 84 -435 89 -152 30 -680 140 -703 145 l-27 7 0 99 c0 54 3 99
8 99 15 0 146 -27 1007 -205 282 -58 510 -105 755 -155 80 -17 217 -45 305
-64 94 -20 164 -30 169 -25 5 5 7 11 5 14 -3 3 -116 28 -250 56 -134 27 -363
75 -509 105 -146 30 -296 61 -335 69 -38 8 -203 42 -365 75 -326 68 -505 104
-870 179 -135 28 -255 53 -267 56 l-23 5 0 1090 c0 918 2 1090 14 1090 7 0
134 -25 282 -56 148 -30 343 -71 434 -89 91 -19 287 -59 435 -90 149 -31 356
-74 460 -95 105 -21 312 -64 460 -95 149 -31 344 -71 435 -90 91 -19 298 -61
460 -95 162 -34 310 -64 328 -67 l32 -6 0 -207 c0 -115 3 -215 6 -224 17 -45
24 16 24 213 0 184 -2 221 -15 231 -9 7 -89 28 -178 46 -89 18 -283 58 -432
89 -148 31 -400 83 -560 116 -159 33 -364 75 -455 94 -91 19 -286 59 -435 90
-446 92 -602 124 -767 158 l-158 31 0 102 c0 88 2 103 20 119 11 10 33 18 48
18 15 -1 160 -29 322 -62 162 -34 327 -68 365 -76 39 -8 203 -41 365 -75 162
-33 327 -67 365 -75 69 -14 128 -26 705 -145 162 -34 327 -67 365 -75 39 -8
203 -41 365 -75 162 -33 327 -67 365 -75 39 -8 225 -46 415 -85 190 -39 431
-89 535 -110 105 -22 323 -67 485 -100 162 -34 315 -65 340 -70 68 -14 735
-151 1070 -220 162 -33 329 -67 370 -75 128 -25 150 -54 150 -197 0 -108 3
-104 -70 -87 -42 10 -341 72 -740 154 -91 19 -286 59 -434 89 -285 59 -296 61
-296 47 0 -15 -19 -10 765 -171 105 -22 312 -64 460 -95 444 -92 616 -127 700
-144 l80 -16 7 -1630 c4 -896 3 -1634 -1 -1638 -4 -4 -129 17 -277 48 -148 31
-388 81 -534 111 -146 30 -311 64 -367 76 -96 20 -130 20 -107 -1 5 -4 79 -22
164 -39 261 -52 644 -132 658 -137 19 -7 18 -1228 -2 -1244 -10 -8 -60 -1
-207 29 -107 22 -197 40 -201 40 -13 0 -9 -30 5 -30 6 -1 95 -18 197 -39 195
-41 219 -41 241 0 9 17 11 172 7 629 l-4 607 65 -14 c36 -7 134 -27 216 -43
l150 -30 19 23 c18 21 18 36 12 246 -3 123 -6 855 -6 1627 0 1235 -2 1404 -15
1418 -8 8 -50 22 -93 31 -42 9 -113 25 -157 35 -44 11 -106 24 -137 30 l-58
11 0 77 c-1 129 -23 187 -86 224 -26 15 -115 36 -349 83 -38 8 -203 42 -365
75 -162 33 -326 67 -365 75 -38 8 -203 42 -365 75 -162 34 -326 67 -365 75
-38 8 -158 32 -265 55 -107 22 -260 54 -340 70 -80 16 -244 50 -365 75 -121
25 -285 59 -365 75 -80 17 -244 50 -365 75 -121 25 -285 59 -365 75 -80 16
-233 48 -340 70 -183 38 -496 103 -655 135 -38 8 -158 32 -265 55 -107 22
-260 54 -340 70 -80 16 -244 50 -365 75 -729 151 -685 143 -722 133z"/>
<path d="M6302 7618 c-29 -29 -3 -78 42 -78 26 0 49 45 36 69 -12 24 -58 29
-78 9z m53 -29 c0 -7 -8 -15 -17 -17 -18 -3 -25 18 -11 32 10 10 28 1 28 -15z"/>
<path d="M6800 7430 c-28 -28 -25 -64 6 -89 15 -12 33 -21 41 -21 21 0 63 46
63 70 0 28 -35 60 -65 60 -14 0 -34 -9 -45 -20z m77 -26 c8 -22 -10 -49 -32
-49 -10 0 -22 7 -28 16 -15 24 -1 49 28 49 15 0 28 -7 32 -16z"/>
<path d="M7167 7094 c-9 -9 23 -54 39 -54 18 0 18 5 -2 35 -17 25 -26 30 -37
19z"/>
<path d="M7287 7062 c-21 -22 -21 -32 -4 -32 14 0 47 31 47 43 0 14 -27 7 -43
-11z"/>
<path d="M7172 6967 c-25 -27 -28 -37 -9 -37 16 0 47 32 47 48 0 19 -14 14
-38 -11z"/>
<path d="M7266 6972 c-7 -12 22 -52 40 -52 8 0 14 4 14 8 0 15 -48 54 -54 44z"/>
<path d="M5290 6690 c-100 -11 -157 -28 -245 -69 -86 -42 -155 -93 -138 -104
6 -4 21 2 35 12 50 40 156 91 233 112 101 29 258 31 355 6 415 -108 642 -549
490 -950 -70 -186 -244 -348 -445 -414 -69 -23 -98 -26 -213 -27 l-133 -1 -10
-40 c-23 -87 -44 -151 -51 -153 -5 -1 -16 -2 -27 -2 -17 0 -17 6 10 102 16 56
25 105 21 109 -4 4 -30 14 -58 23 -104 34 -227 122 -300 215 -90 114 -142 241
-153 374 -16 173 23 335 110 466 39 58 47 81 30 81 -10 0 -68 -84 -96 -139
-49 -96 -68 -174 -72 -302 -5 -106 -2 -138 16 -207 56 -217 186 -379 384 -482
40 -20 82 -39 93 -42 l22 -6 -29 -103 c-24 -87 -34 -108 -62 -131 -17 -15 -35
-28 -38 -28 -13 0 -50 -82 -55 -124 -6 -39 -12 -50 -36 -62 -42 -22 -59 -71
-65 -196 -3 -59 -9 -108 -13 -108 -9 0 -43 75 -110 245 -67 169 -104 236 -164
302 -65 71 -151 114 -299 147 -26 6 -28 10 -22 39 12 55 38 75 94 69 27 -2 58
1 70 8 32 17 68 102 81 190 14 92 22 128 50 205 43 119 35 257 -21 367 -32 64
-135 161 -209 198 -74 38 -181 51 -243 31 -59 -20 -115 -67 -142 -122 -30 -58
-47 -67 -170 -94 -105 -23 -148 -46 -216 -115 -85 -87 -104 -133 -104 -256 0
-98 1 -103 42 -185 92 -186 249 -277 466 -268 48 2 87 1 87 -3 0 -28 -15 -38
-61 -38 -90 0 -244 -36 -319 -76 -166 -87 -349 -347 -493 -699 -75 -185 -167
-475 -167 -528 0 -11 7 -25 16 -32 15 -10 13 -17 -15 -71 -17 -32 -53 -83 -80
-111 l-49 -53 -40 14 c-58 21 -122 55 -163 87 -20 16 -40 29 -44 29 -4 0 -43
-34 -88 -75 -162 -149 -323 -229 -514 -255 -74 -10 -93 -16 -93 -29 0 -25 124
-146 185 -181 29 -17 87 -62 128 -100 58 -54 82 -70 105 -70 67 0 301 73 448
140 192 87 345 241 379 383 5 17 3 27 -4 27 -15 0 -13 115 3 160 9 26 19 36
39 38 20 3 37 21 81 92 30 50 119 183 198 297 l143 207 3 -49 c7 -100 -41
-425 -88 -610 -44 -171 -79 -252 -292 -675 -109 -217 -198 -403 -198 -412 0
-24 26 -39 182 -109 316 -143 583 -226 868 -273 158 -25 215 -29 239 -17 13 7
45 60 80 129 74 151 81 152 136 17 45 -109 65 -128 119 -118 70 13 66 -6 66
306 0 616 -64 1125 -191 1516 -16 51 -28 95 -26 98 3 2 58 -50 123 -115 128
-128 211 -189 266 -198 31 -6 38 -2 66 32 113 137 228 701 167 817 -14 28 -14
31 20 70 l36 41 -3 106 c-3 87 1 118 20 180 l23 75 117 1 c93 1 134 6 198 26
380 114 603 502 507 883 -60 240 -245 442 -477 520 -63 21 -98 28 -211 39 -16
2 -59 0 -95 -4z m-810 -1131 c0 -67 -34 -186 -61 -214 -16 -16 -31 -20 -76
-18 -46 2 -61 -1 -79 -18 -24 -22 -50 -109 -41 -133 3 -8 27 -18 54 -22 74
-10 78 -15 41 -53 -46 -47 -84 -64 -158 -68 -87 -5 -156 20 -187 66 -35 52
-31 66 25 77 43 8 48 12 61 50 12 35 23 45 78 73 68 36 111 82 144 155 19 45
20 46 44 30 33 -22 41 -1 10 30 -16 16 -25 36 -25 56 0 36 22 40 44 9 20 -30
42 -15 22 16 -14 21 -13 24 3 39 11 10 32 21 47 25 25 7 31 5 41 -18 7 -14 12
-51 13 -82z m691 -556 c5 -14 10 -51 11 -80 2 -54 1 -55 -55 -109 -31 -30 -62
-54 -70 -54 -8 0 -26 9 -41 21 -56 44 -23 162 59 217 59 39 82 40 96 5z m-827
-581 c18 -105 20 -140 7 -126 -12 12 -44 202 -35 215 9 16 11 11 28 -89z m74
-389 c80 -305 118 -792 97 -1255 -12 -277 -25 -193 -19 120 10 480 -27 895
-106 1162 -12 43 -12 50 -1 50 5 0 18 -35 29 -77z m-1305 -193 c45 -20 45 -21
36 -53 -6 -17 -13 -61 -17 -97 l-7 -65 -38 -6 c-21 -3 -65 -25 -97 -48 -73
-51 -104 -63 -119 -48 -28 28 -4 83 77 171 32 33 68 85 81 114 14 28 28 52 31
52 4 0 28 -9 53 -20z m-312 -197 c42 -15 49 -21 44 -38 -17 -52 -17 -76 0 -95
29 -32 64 -24 154 35 60 39 94 55 118 55 31 0 34 -2 28 -22 -27 -88 -114 -192
-217 -260 -130 -87 -330 -166 -512 -204 l-86 -18 -63 61 c-34 34 -89 78 -122
99 -33 21 -86 62 -118 93 -61 58 -61 71 1 71 147 1 402 130 545 278 l49 49 64
-43 c36 -24 87 -51 115 -61z"/>
<path d="M5235 6586 c-206 -48 -363 -170 -450 -351 -37 -76 -65 -196 -65 -274
0 -89 28 -202 71 -291 33 -67 59 -102 123 -165 128 -127 267 -185 446 -185
179 0 318 58 446 185 44 44 93 103 108 130 34 62 79 192 71 206 -11 16 -22 1
-34 -47 -19 -76 -71 -171 -125 -228 l-51 -54 -130 22 -130 23 -3 75 -3 75 76
6 c131 10 215 80 217 183 2 102 -106 354 -191 441 -70 74 -120 97 -206 97
-143 0 -256 -88 -344 -267 -76 -154 -98 -268 -67 -340 30 -72 113 -117 212
-117 l54 0 0 -79 0 -78 -62 -7 c-35 -3 -103 -15 -153 -26 l-90 -19 -50 52
c-96 101 -155 254 -155 402 1 461 479 754 893 547 106 -53 212 -162 265 -273
22 -46 46 -112 53 -147 7 -37 16 -61 23 -59 25 8 -9 140 -62 242 -46 88 -163
208 -247 252 -138 72 -310 99 -440 69z m350 -496 c0 -118 -1 -128 -27 -172
-31 -51 -83 -89 -136 -97 -20 -4 -37 -12 -40 -20 -4 -11 4 -13 34 -8 22 3 47
8 57 12 16 7 17 -4 17 -137 0 -80 -5 -159 -11 -177 -26 -74 -138 -80 -175 -10
-21 42 -20 317 2 333 13 10 9 16 -26 45 -65 52 -80 95 -80 232 0 64 3 119 7
123 4 3 90 5 192 4 l186 -3 0 -125z m-263 -670 c66 -40 155 -13 184 55 14 34
16 35 67 35 28 -1 79 -6 112 -13 l59 -13 -35 -26 c-185 -142 -519 -142 -698 0
l-24 19 89 17 c49 9 109 17 134 19 43 2 46 0 62 -35 9 -21 32 -47 50 -58z"/>
<path d="M5320 5983 c0 -20 38 -43 71 -43 41 0 86 27 70 43 -7 7 -15 6 -25 -3
-16 -12 -65 -10 -98 5 -10 4 -18 3 -18 -2z"/>
<path d="M5506 5166 c-76 -32 -122 -69 -168 -137 -48 -69 -73 -162 -64 -244
13 -126 101 -250 214 -303 50 -24 69 -27 157 -26 81 0 109 4 146 22 121 57
207 181 217 312 6 90 -13 95 -23 5 -7 -68 -49 -168 -84 -199 -17 -15 -26 -16
-82 -5 -35 6 -70 13 -76 15 -22 6 -16 88 8 118 14 18 25 52 30 94 5 37 12 88
15 114 6 43 4 50 -24 78 -30 29 -33 30 -125 30 -105 0 -133 -12 -157 -69 -10
-25 -9 -38 4 -77 9 -26 16 -62 16 -79 0 -18 11 -54 26 -80 18 -34 24 -60 22
-89 -3 -39 -4 -41 -43 -47 -22 -4 -59 -10 -81 -14 -41 -7 -42 -6 -71 36 -120
176 -61 412 129 510 33 17 65 24 135 27 87 4 95 3 155 -27 35 -17 71 -36 80
-43 31 -22 34 3 3 29 -57 47 -114 66 -210 70 -79 3 -97 1 -149 -21z m199 -202
c27 -11 45 -60 45 -124 0 -93 -17 -116 -103 -144 -29 -9 -8 -29 24 -22 29 5
29 5 29 -41 0 -67 -42 -103 -87 -75 -30 19 -46 122 -18 122 24 0 18 15 -20 53
-32 32 -35 40 -35 91 l0 56 67 45 c72 48 73 48 98 39z m-121 -419 c35 -34 88
-34 123 1 24 24 31 25 79 19 30 -3 54 -11 54 -16 0 -16 -100 -58 -156 -65 -64
-8 -156 11 -209 42 -39 23 -38 27 10 37 48 11 75 6 99 -18z"/>
<path d="M2389 4482 c-25 -22 -31 -36 -32 -71 l-2 -44 -224 -142 c-202 -127
-253 -165 -223 -165 5 0 113 65 238 144 216 136 230 143 248 127 25 -23 98
-21 125 3 29 26 44 77 32 109 -27 70 -105 90 -162 39z m121 -24 c27 -29 25
-64 -5 -93 -41 -41 -105 -25 -119 30 -6 25 7 64 28 77 23 16 75 8 96 -14z"/>
<path d="M1463 4373 c-12 -2 -34 -18 -48 -34 -43 -53 -28 -126 32 -154 81 -39
166 42 134 127 -16 42 -70 70 -118 61z m80 -55 c24 -28 21 -65 -8 -93 -46 -47
-115 -17 -115 49 0 68 78 96 123 44z"/>
<path d="M5545 4227 c-22 -8 -51 -19 -64 -26 -30 -17 -111 -91 -111 -102 0
-17 18 -9 56 26 168 154 435 104 540 -102 26 -52 29 -68 29 -153 0 -59 -5
-104 -13 -118 -12 -21 -15 -21 -41 -8 -49 26 -56 42 -61 152 -5 94 -8 106 -35
146 -46 65 -91 91 -140 83 -22 -4 -57 -6 -78 -6 -51 2 -101 -30 -133 -85 -23
-39 -26 -52 -20 -97 18 -131 18 -137 3 -160 -8 -12 -37 -35 -65 -50 -60 -33
-65 -29 -89 67 -14 57 -14 77 -4 133 12 68 9 85 -12 64 -8 -8 -12 -48 -12
-119 0 -96 3 -113 27 -162 35 -71 107 -143 178 -178 77 -38 200 -43 283 -12
305 115 330 539 40 682 -56 27 -78 32 -152 35 -52 2 -102 -2 -126 -10z m186
-246 c27 -27 29 -35 29 -103 0 -68 -2 -76 -27 -100 -16 -15 -40 -30 -55 -33
-35 -9 -36 -25 -2 -25 24 0 25 -2 22 -51 -3 -59 -25 -82 -55 -63 -14 9 -18 26
-19 72 -1 54 -5 66 -33 97 -25 29 -31 44 -31 83 0 43 4 51 52 99 29 29 61 53
71 53 10 0 32 -13 48 -29z m-124 -381 c33 -40 73 -40 106 0 25 29 25 29 87 19
37 -7 60 -16 58 -23 -2 -6 -26 -22 -53 -36 -39 -20 -69 -26 -137 -28 -81 -4
-93 -2 -155 27 -40 19 -63 35 -57 41 7 7 68 22 117 29 5 0 20 -12 34 -29z"/>
<path d="M1125 4065 c-200 -128 -237 -146 -249 -126 -10 16 -61 19 -93 6 -31
-13 -63 -59 -63 -90 0 -30 30 -75 61 -90 66 -34 139 15 139 94 l1 46 216 136
c199 124 247 160 211 158 -7 0 -107 -61 -223 -134z m-252 -163 c22 -19 22 -70
0 -94 -24 -27 -87 -24 -107 4 -21 29 -20 58 2 84 29 37 67 39 105 6z"/>
<path d="M1585 4180 c-8 -13 71 -100 92 -100 22 0 14 14 -36 64 -33 32 -51 44
-56 36z"/>
<path d="M1719 4061 c-49 -49 -38 -125 23 -157 85 -44 178 49 134 134 -32 61
-108 72 -157 23z m124 -33 c51 -68 -46 -143 -107 -82 -21 20 -20 63 0 92 22
32 79 27 107 -10z"/>
<path d="M4970 3552 c0 -237 2 -281 15 -292 8 -7 55 -21 103 -31 263 -54 645
-134 772 -160 80 -16 207 -42 283 -58 80 -16 140 -24 143 -19 3 5 4 11 1 14
-2 2 -103 25 -223 50 -394 81 -786 162 -919 189 -71 15 -133 30 -137 34 -4 4
-9 128 -10 276 -2 204 -6 269 -15 273 -10 3 -13 -57 -13 -276z"/>
<path d="M4410 2091 c0 -16 5 -17 245 -66 336 -69 306 -65 303 -46 -3 12 -57
27 -253 68 -260 54 -295 59 -295 44z"/>
<path d="M2482 1940 c-20 -9 -42 -45 -42 -71 0 -18 49 -59 70 -59 26 0 70 43
70 68 0 44 -55 79 -98 62z m56 -56 c2 -11 -4 -27 -13 -34 -14 -11 -19 -10 -37
8 -18 18 -19 23 -8 37 18 22 54 15 58 -11z"/>
<path d="M1645 1759 c-9 -13 41 -66 52 -55 9 9 -17 58 -34 63 -6 2 -14 -1 -18
-8z"/>
<path d="M1767 1732 c-18 -20 -22 -42 -8 -42 13 0 61 40 61 51 0 16 -36 10
-53 -9z"/>
<path d="M1645 1630 c-28 -31 -6 -46 28 -20 15 12 27 26 27 31 0 17 -37 9 -55
-11z"/>
<path d="M1745 1640 c-7 -12 25 -59 41 -60 22 0 22 13 2 41 -23 31 -33 35 -43
19z"/>
<path d="M3596 952 c-4 -3 -6 -19 -6 -36 0 -54 -32 -211 -46 -221 -7 -5 -24
-39 -39 -75 -14 -36 -33 -78 -42 -94 -37 -67 -13 -142 58 -179 28 -15 53 -17
144 -15 129 4 144 11 257 106 139 117 191 206 169 290 -14 52 -43 68 -132 77
-35 3 -86 11 -112 17 l-48 10 7 44 6 44 -56 0 c-31 0 -78 8 -105 19 -28 10
-52 16 -55 13z m283 -175 c10 -8 12 -27 8 -69 -3 -33 -1 -58 4 -58 16 0 31 52
27 93 -2 25 1 37 9 37 18 0 34 -35 31 -67 -2 -15 2 -29 7 -31 6 -1 11 18 13
43 3 50 19 58 60 29 25 -17 29 -65 9 -101 -13 -24 -119 -106 -225 -175 -65
-42 -68 -43 -153 -43 -73 0 -92 3 -116 21 -41 31 -48 61 -29 125 24 82 28 85
69 66 99 -47 207 13 207 116 0 32 1 33 33 29 17 -2 38 -9 46 -15z"/>
<path d="M2716 878 c-22 -40 -65 -102 -96 -138 -98 -112 -113 -138 -107 -193
5 -56 27 -90 86 -132 37 -26 51 -30 109 -30 80 1 114 16 193 89 30 28 79 69
108 91 110 84 141 177 85 252 -19 26 -36 34 -94 47 -39 9 -75 14 -80 11 -20
-13 -81 9 -118 41 -22 19 -42 34 -44 34 -2 0 -21 -33 -42 -72z m290 -83 c18
-43 38 -37 28 8 -6 31 -6 31 16 16 33 -22 40 -49 25 -93 -19 -54 -60 -94 -133
-127 -35 -16 -75 -43 -90 -60 -72 -87 -202 -76 -252 20 -32 63 -26 81 49 167
l34 38 38 -22 c21 -12 53 -22 71 -22 44 0 97 34 111 70 6 17 14 30 18 30 11 0
30 -27 37 -54 4 -14 12 -25 17 -25 13 0 8 59 -7 76 -8 10 -6 13 6 13 10 0 23
-15 32 -35z"/>
</g>
</svg>
